
		<!--?xml version="1.0" standalone="no"?-->

<svg version="1.0" xmlns="http://www.w3.org/2000/svg" width="300" height="300" viewBox="0 0 300.000000 208.000000" preserveAspectRatio="xMidYMid " class="svg" style="width: 310px; height: 300px;">
<g transform="translate(0.000000,208.000000) scale(0.100000,-0.100000)" fill="#272727" stroke="none">
<path class="node" id="node1" d="M2319 1846 c-57 -20 -96 -53 -118 -99 -20 -42 -21 -59 -21 -416 0
-420 0 -418 79 -482 64 -51 67 -69 47 -243 -10 -83 -24 -188 -32 -232 -17
-100 -5 -147 46 -182 38 -26 67 -28 115 -8 75 32 79 72 44 451 -15 170 -21
333 -26 717 l-6 496 -30 6 c-41 8 -57 7 -98 -8z m35 -496 c8 -399 7 -410 -35
-410 -10 0 -25 10 -33 22 -14 19 -16 70 -16 350 0 328 3 363 37 400 38 43 40
31 47 -362z m46 -1064 c-16 -16 -41 2 -36 26 3 13 11 86 18 163 l13 140 7
-160 c4 -93 4 -163 -2 -169z" style="fill: rgb(255, 255, 255);"></path>
<path class="node" id="node2" d="M1397 1813 c-4 -3 -7 -105 -7 -225 0 -197 2 -223 20 -257 21 -41 67
-86 100 -96 19 -6 21 -12 15 -73 -22 -246 -57 -620 -65 -687 -21 -186 -5 -256
68 -291 42 -20 109 -12 146 17 55 43 55 60 2 649 -14 151 -27 298 -29 325 -4
50 -4 50 41 81 27 18 55 48 69 74 22 41 23 54 23 235 0 106 -3 207 -6 224 -6
28 -10 31 -45 31 -36 0 -39 -2 -40 -27 -1 -16 -4 -113 -8 -218 -5 -163 -8
-190 -22 -193 -14 -3 -17 23 -23 210 -4 116 -9 216 -12 220 -3 4 -23 8 -45 8
l-39 0 0 -143 c0 -211 -9 -297 -30 -297 -15 0 -18 17 -23 137 -4 75 -7 174 -7
220 l0 83 -38 0 c-21 0 -42 -3 -45 -7z m204 -1373 c4 -150 3 -155 -16 -155
-23 0 -22 -16 -9 300 8 181 8 186 15 100 4 -49 8 -160 10 -245z" style="fill: rgb(255, 255, 255);"></path>
</g>
<g transform="translate(0.000000,208.000000) scale(0.100000,-0.100000)" fill="#FFFFFF" stroke="none">

<path class="node" id="node4" d="M2307 1712 c-34 -37 -37 -72 -37 -400 0 -280 2 -331 16 -350 8 -12
23 -22 33 -22 42 0 43 11 35 410 -7 393 -9 405 -47 362z" style="fill: rgb(255, 255, 255);"></path>
<path class="node" id="node5" d="M2382 475 c-7 -77 -15 -150 -18 -163 -5 -24 20 -42 36 -26 6 6 6 76
2 169 l-7 160 -13 -140z" style="fill: rgb(255, 255, 255);"></path>
<path class="node" id="node6" d="M1576 585 c-13 -316 -14 -300 9 -300 19 0 20 5 16 155 -2 85 -6 196
-10 245 -7 86 -7 81 -15 -100z" style="fill: rgb(255, 255, 255);"></path>
</g>
</svg>	